<svg xmlns="http://www.w3.org/2000/svg" version="1.1" xmlns:xlink="http://www.w3.org/1999/xlink" xmlns:svgjs="http://svgjs.dev/svgjs" width="1440" height="560" preserveAspectRatio="none" viewBox="0 0 1440 560"><g mask="url(&quot;#SvgjsMask1004&quot;)" fill="none"><rect width="1440" height="560" x="0" y="0" fill="rgba(92, 213, 163, 1)"></rect><path d="M0,511.4C93.942,506.004,155.375,415.694,236.382,367.818C321.457,317.538,434.406,305.867,488.121,222.918C543.641,137.182,548.852,23.655,523.291,-75.238C498.892,-169.633,418.523,-233.753,351.727,-304.773C287.704,-372.845,232.954,-462.94,141.336,-481.346C50.844,-499.525,-31.324,-432.934,-117.147,-398.967C-194.493,-368.355,-273.748,-346.033,-337.015,-292.025C-407.922,-231.494,-501.375,-165.148,-500.252,-71.925C-499.105,23.285,-375.945,67.171,-331.673,151.47C-291.108,228.71,-313.623,331.855,-254.502,396.013C-190.076,465.927,-94.916,516.852,0,511.4" fill="#32c287"></path><path d="M1440 1070.846C1534.343 1065.883 1573.095 941.155 1656.786 897.326 1753.26 846.802 1894.636 884.259 1961.0639999999999 797.962 2026.5030000000002 712.948 2003.435 586.618 1975.7359999999999 482.973 1949.836 386.06 1878.958 312.33500000000004 1811.45 238.13600000000002 1745.499 165.649 1682.693 81.12599999999998 1587.811 56.601999999999975 1493.859 32.31899999999996 1399.257 77.041 1307.226 107.81200000000001 1218.4569999999999 137.49200000000002 1133.978 172.64299999999997 1061.9569999999999 232.42399999999998 979.3430000000001 300.998 867.102 369.7 862.492 476.967 857.824 585.586 973.252 656.866 1040.029 742.6610000000001 1091.22 808.431 1143.612 868.065 1208.0430000000001 920.932 1280.685 980.5360000000001 1346.165 1075.7820000000002 1440 1070.846" fill="#8de2be"></path></g><defs><mask id="SvgjsMask1004"><rect width="1440" height="560" fill="#ffffff"></rect></mask></defs></svg>